<?xml version="1.0" encoding="utf-8"?>
<!-- Generator: Adobe Illustrator 17.0.0, SVG Export Plug-In . SVG Version: 6.00 Build 0)  -->
<!DOCTYPE svg PUBLIC "-//W3C//DTD SVG 1.1//EN" "http://www.w3.org/Graphics/SVG/1.1/DTD/svg11.dtd">
<svg version="1.1" id="Layer_1" xmlns="http://www.w3.org/2000/svg" xmlns:xlink="http://www.w3.org/1999/xlink" x="0px" y="0px"
	 width="173.349px" height="79.224px" viewBox="0 0 173.349 79.224" enable-background="new 0 0 173.349 79.224"
	 xml:space="preserve">
<g>
	<g>
		<path d="M83.543,21.979c0-0.459,0.258-0.689,0.775-0.689c0.401,0,0.659,0.187,0.774,0.559l8.606,27.885l8.563-27.885
			c0.114-0.373,0.345-0.559,0.689-0.559c0.229,0,0.431,0.072,0.603,0.215c0.172,0.143,0.257,0.315,0.257,0.515
			c0,0.029-0.007,0.065-0.023,0.108s-0.023,0.079-0.023,0.107l-9.263,30.162c-0.144,0.404-0.416,0.608-0.817,0.608
			s-0.659-0.201-0.773-0.603l-9.325-30.165C83.558,22.18,83.543,22.094,83.543,21.979z"/>
		<path d="M108.416,51.973v-29.95c0-0.431,0.258-0.674,0.774-0.732h7.187c2.638,0,4.776,0.646,6.412,1.937
			c1.635,1.291,2.451,3.385,2.451,6.283c0,4.877-2.409,7.602-7.229,8.176l7.1,13.814c0.086,0.172,0.129,0.33,0.129,0.473
			c0,0.23-0.071,0.416-0.214,0.558c-0.145,0.145-0.331,0.216-0.561,0.216c-0.115,0-0.223-0.028-0.322-0.086
			c-0.101-0.056-0.202-0.157-0.302-0.301c-0.1-0.144-0.179-0.258-0.237-0.345l-0.172-0.473c-0.115-0.229-0.187-0.343-0.215-0.343
			l-6.885-13.427h-6.368v14.201c0,0.516-0.26,0.774-0.775,0.774S108.416,52.488,108.416,51.973z M109.966,36.223h6.412
			c2.265,0,4.05-0.544,5.357-1.635c1.305-1.09,1.957-2.783,1.957-5.078s-0.652-3.981-1.957-5.056
			c-1.307-1.076-3.092-1.614-5.357-1.614h-6.412V36.223z"/>
		<path d="M130.318,51.973v-29.95c0-0.431,0.258-0.674,0.774-0.732h7.618c2.552,0,4.597,0.71,6.132,2.13
			c1.535,1.42,2.302,3.665,2.302,6.735v0.516c0,3.07-0.767,5.322-2.302,6.756c-1.535,1.435-3.579,2.151-6.132,2.151h-6.843v12.394
			c0,0.516-0.258,0.774-0.775,0.774C130.576,52.747,130.318,52.488,130.318,51.973z M131.867,38.03h6.843
			c2.208,0,3.908-0.617,5.099-1.851c1.19-1.233,1.786-3.069,1.786-5.508v-0.516c0-2.438-0.596-4.267-1.786-5.487
			c-1.191-1.219-2.891-1.829-5.099-1.829h-6.843V38.03z"/>
		<path d="M152.393,51.973v-29.95c0-0.488,0.258-0.732,0.774-0.732c0.316,0,0.76,0.516,1.335,1.549l8.349,16.439l8.391-16.439
			c0.573-1.033,1.018-1.549,1.334-1.549c0.517,0,0.774,0.244,0.774,0.732v29.95c0,0.516-0.257,0.774-0.774,0.774
			c-0.517,0-0.774-0.258-0.774-0.774V25.077l-8.133,15.664c-0.287,0.544-0.561,0.818-0.818,0.818c-0.287,0-0.561-0.273-0.818-0.818
			l-8.09-15.664v26.896c0,0.516-0.258,0.774-0.775,0.774C152.651,52.747,152.393,52.488,152.393,51.973z"/>
	</g>
	<g>
		<g>
			<path fill="#131718" d="M37.334,57.758c-0.122,0-0.243-0.031-0.352-0.094L0.357,36.702C0.136,36.576,0,36.341,0,36.087V20.308
				c0-0.254,0.136-0.488,0.356-0.615c0.22-0.126,0.491-0.126,0.71,0.002l36.625,21.307c0.218,0.127,0.353,0.36,0.353,0.613v15.433
				c0,0.253-0.135,0.487-0.354,0.613C37.58,57.726,37.457,57.758,37.334,57.758z M1.418,35.676l35.207,20.15V42.023L1.418,21.541
				V35.676z"/>
		</g>
		<g>
			<polygon fill="#FFFFFF" points="0.709,20.308 0.709,35.857 35.952,15.471 35.952,0.038 			"/>
			<path fill="#131718" d="M0.709,36.566c-0.122,0-0.245-0.032-0.354-0.095C0.135,36.344,0,36.11,0,35.857V20.308
				c0-0.254,0.136-0.488,0.356-0.615L35.599-0.577c0.22-0.126,0.49-0.126,0.709,0.001c0.219,0.127,0.354,0.361,0.354,0.614v15.433
				c0,0.253-0.135,0.487-0.354,0.614L1.064,36.471C0.955,36.534,0.832,36.566,0.709,36.566z M1.418,20.718v13.909l33.825-19.565
				V1.264L1.418,20.718z"/>
		</g>
		<g>
			<path fill="#131718" d="M37.689,79.224c-0.123,0-0.246-0.032-0.356-0.096L0.353,57.662C0.135,57.535,0,57.301,0,57.049V41.615
				c0-0.253,0.135-0.488,0.355-0.614c0.22-0.127,0.49-0.127,0.709,0l36.98,21.351c0.22,0.127,0.355,0.361,0.355,0.614v15.548
				c0,0.254-0.135,0.488-0.355,0.615C37.933,79.193,37.811,79.224,37.689,79.224z M1.418,56.64L36.98,77.283V63.376L1.418,42.844
				V56.64z"/>
		</g>
		<g>
			<path fill="#131718" d="M59.333,50.847c-0.123,0-0.245-0.032-0.355-0.095L35.482,37.174c-0.219-0.127-0.354-0.361-0.354-0.614
				V21.114c0-0.254,0.135-0.488,0.355-0.614c0.219-0.127,0.49-0.127,0.71,0.001l36.74,21.307c0.219,0.127,0.353,0.36,0.354,0.613
				c0,0.253-0.134,0.486-0.352,0.613L59.69,50.751C59.579,50.815,59.456,50.847,59.333,50.847z M36.547,36.151l22.785,13.167
				l11.835-6.895l-34.62-20.078V36.151z"/>
		</g>
		<g>
			<polygon fill="#FFFFFF" points="0.709,41.385 0.709,56.934 35.952,36.548 35.952,21.114 			"/>
			<path fill="#131718" d="M0.709,57.643c-0.122,0-0.245-0.032-0.354-0.095C0.135,57.421,0,57.187,0,56.934V41.385
				c0-0.254,0.136-0.488,0.356-0.615L35.599,20.5c0.22-0.126,0.49-0.126,0.709,0.001c0.219,0.127,0.354,0.361,0.354,0.614v15.433
				c0,0.253-0.135,0.487-0.354,0.614L1.064,57.547C0.955,57.611,0.832,57.643,0.709,57.643z M1.418,41.795v13.909l33.825-19.565
				V22.34L1.418,41.795z"/>
		</g>
		<g>
			<path fill="#FFFFFF" d="M36.271-0.067v15.549l15.202,8.76v-7.278l4.839,2.794v7.273l16.621,9.517V21.114L36.271-0.067z
				 M46.916,15.397l-5.07-2.927V7.4l5.07,2.927V15.397z M65.938,26.379l-5.07-2.927v-5.07l5.07,2.927V26.379z"/>
			<path fill="#131718" d="M72.932,37.257c-0.122,0-0.243-0.031-0.353-0.094l-16.621-9.517c-0.221-0.126-0.357-0.361-0.357-0.616
				v-6.863l-3.421-1.975v6.05c0,0.253-0.135,0.487-0.354,0.614c-0.219,0.127-0.489,0.127-0.709,0.001l-15.202-8.76
				c-0.22-0.127-0.355-0.361-0.355-0.614V-0.067c0-0.253,0.135-0.488,0.355-0.614c0.22-0.127,0.49-0.126,0.71,0L73.287,20.5
				c0.219,0.127,0.354,0.361,0.354,0.614v15.433c0,0.253-0.135,0.487-0.354,0.614C73.178,37.225,73.055,37.257,72.932,37.257z
				 M57.021,26.62l15.202,8.705V21.524L36.98,1.162v13.91l13.784,7.943v-6.051c0-0.253,0.135-0.488,0.355-0.614
				c0.22-0.127,0.49-0.127,0.709,0l4.839,2.794c0.22,0.127,0.355,0.361,0.355,0.614V26.62z M65.938,27.088
				c-0.123,0-0.245-0.032-0.355-0.095l-5.07-2.927c-0.22-0.127-0.355-0.361-0.355-0.614v-5.07c0-0.253,0.135-0.488,0.355-0.614
				c0.22-0.127,0.49-0.127,0.709,0l5.07,2.927c0.22,0.127,0.355,0.361,0.355,0.614v5.07c0,0.253-0.135,0.488-0.355,0.614
				C66.182,27.056,66.06,27.088,65.938,27.088z M61.577,23.042l3.651,2.108v-3.432l-3.651-2.108V23.042z M46.916,16.106
				c-0.123,0-0.245-0.032-0.355-0.095l-5.069-2.927c-0.22-0.127-0.355-0.361-0.355-0.614V7.4c0-0.253,0.135-0.488,0.355-0.614
				c0.22-0.127,0.49-0.127,0.709,0l5.069,2.927c0.22,0.127,0.355,0.361,0.355,0.614v5.07c0,0.253-0.135,0.488-0.355,0.614
				C47.161,16.074,47.039,16.106,46.916,16.106z M42.556,12.06l3.651,2.108v-3.432l-3.651-2.108V12.06z"/>
		</g>
		<g>
			<polygon fill="#FFFFFF" points="72.932,21.46 72.932,36.56 37.334,57.049 37.334,41.615 			"/>
			<path fill="#131718" d="M37.334,57.758c-0.123,0-0.245-0.032-0.355-0.095c-0.219-0.127-0.354-0.361-0.354-0.614V41.615
				c0-0.256,0.137-0.491,0.36-0.617l35.598-20.155c0.22-0.125,0.489-0.123,0.706,0.004c0.218,0.127,0.352,0.36,0.352,0.613v15.1
				c0,0.254-0.135,0.488-0.355,0.615L37.688,57.663C37.578,57.726,37.457,57.758,37.334,57.758z M38.044,42.029v13.793l34.18-19.672
				V22.676L38.044,42.029z"/>
		</g>
		<g>
			<path fill="#FFFFFF" d="M37.689,62.967v15.549l15.202-8.793v-7.278l4.839-2.794v7.273l15.202-8.793V42.696L37.689,62.967z
				 M48.335,66.137l-5.07,2.927v-5.07l5.07-2.927V66.137z M67.356,55.155l-5.07,2.927v-5.07l5.07-2.927V55.155z"/>
			<path fill="#131718" d="M37.689,79.224c-0.122,0-0.245-0.032-0.354-0.095c-0.22-0.127-0.355-0.361-0.355-0.614V62.967
				c0-0.254,0.136-0.488,0.356-0.615l35.243-20.271c0.219-0.126,0.489-0.126,0.709,0.001c0.219,0.127,0.354,0.361,0.354,0.614
				v15.433c0,0.253-0.135,0.487-0.354,0.614l-15.202,8.793c-0.219,0.127-0.49,0.127-0.709,0c-0.22-0.127-0.355-0.361-0.355-0.614
				v-6.044L53.6,62.853v6.869c0,0.253-0.135,0.487-0.354,0.614l-15.202,8.793C37.934,79.192,37.812,79.224,37.689,79.224z
				 M38.398,63.377v13.909l13.784-7.973v-6.869c0-0.253,0.135-0.488,0.355-0.614l4.839-2.794c0.22-0.127,0.49-0.127,0.709,0
				c0.22,0.127,0.355,0.361,0.355,0.614v6.043l13.784-7.973V43.922L38.398,63.377z M43.265,69.773c-0.123,0-0.245-0.032-0.355-0.095
				c-0.22-0.127-0.355-0.361-0.355-0.614v-5.07c0-0.253,0.135-0.488,0.355-0.614l5.07-2.927c0.22-0.127,0.49-0.127,0.709,0
				c0.22,0.127,0.355,0.361,0.355,0.614v5.07c0,0.253-0.135,0.488-0.355,0.614l-5.07,2.927
				C43.51,69.742,43.388,69.773,43.265,69.773z M43.974,64.404v3.432l3.651-2.108v-3.432L43.974,64.404z M62.287,58.791
				c-0.123,0-0.245-0.032-0.355-0.095c-0.22-0.127-0.355-0.361-0.355-0.614v-5.07c0-0.253,0.135-0.488,0.355-0.614l5.069-2.927
				c0.22-0.127,0.49-0.127,0.709,0c0.22,0.127,0.355,0.361,0.355,0.614v5.07c0,0.253-0.135,0.488-0.355,0.614l-5.069,2.927
				C62.532,58.76,62.409,58.791,62.287,58.791z M62.996,53.422v3.432l3.651-2.108v-3.432L62.996,53.422z"/>
		</g>
	</g>
</g>
</svg>
