<?xml version="1.0" encoding="utf-8"?>
<!-- Generator: Adobe Illustrator 17.0.0, SVG Export Plug-In . SVG Version: 6.00 Build 0)  -->
<!DOCTYPE svg PUBLIC "-//W3C//DTD SVG 1.1//EN" "http://www.w3.org/Graphics/SVG/1.1/DTD/svg11.dtd">
<svg version="1.1" id="Layer_1" xmlns="http://www.w3.org/2000/svg" xmlns:xlink="http://www.w3.org/1999/xlink" x="0px" y="0px"
	 width="173.349px" height="79.999px" viewBox="0 -0.775 173.349 79.999" enable-background="new 0 -0.775 173.349 79.999"
	 xml:space="preserve">
<g>
	<path fill="#FFFFFF" d="M83.543,21.979c0-0.459,0.258-0.689,0.775-0.689c0.401,0,0.659,0.187,0.774,0.559l8.606,27.885
		l8.563-27.885c0.114-0.373,0.345-0.559,0.689-0.559c0.229,0,0.431,0.072,0.603,0.215s0.257,0.315,0.257,0.515
		c0,0.029-0.007,0.065-0.023,0.108s-0.023,0.079-0.023,0.107l-9.263,30.162c-0.144,0.404-0.416,0.608-0.817,0.608
		s-0.659-0.201-0.773-0.603l-9.325-30.165C83.558,22.18,83.543,22.094,83.543,21.979z"/>
	<path fill="#FFFFFF" d="M108.416,51.973v-29.95c0-0.431,0.258-0.674,0.774-0.732h7.187c2.638,0,4.776,0.646,6.412,1.937
		c1.635,1.291,2.451,3.385,2.451,6.283c0,4.877-2.409,7.602-7.229,8.176l7.1,13.814c0.086,0.172,0.129,0.33,0.129,0.473
		c0,0.23-0.071,0.416-0.214,0.558c-0.145,0.145-0.331,0.216-0.561,0.216c-0.115,0-0.223-0.028-0.322-0.086
		c-0.101-0.056-0.202-0.157-0.302-0.301c-0.1-0.144-0.179-0.258-0.237-0.345l-0.172-0.473c-0.115-0.229-0.187-0.343-0.215-0.343
		l-6.885-13.427h-6.368v14.201c0,0.516-0.26,0.774-0.775,0.774S108.416,52.488,108.416,51.973z M109.966,36.223h6.412
		c2.265,0,4.05-0.544,5.357-1.635c1.305-1.09,1.957-2.783,1.957-5.078s-0.652-3.981-1.957-5.056
		c-1.307-1.076-3.092-1.614-5.357-1.614h-6.412V36.223z"/>
	<path fill="#FFFFFF" d="M130.318,51.973v-29.95c0-0.431,0.258-0.674,0.774-0.732h7.618c2.552,0,4.597,0.71,6.132,2.13
		s2.302,3.665,2.302,6.735v0.516c0,3.07-0.767,5.322-2.302,6.756c-1.535,1.435-3.579,2.151-6.132,2.151h-6.843v12.394
		c0,0.516-0.258,0.774-0.775,0.774C130.576,52.747,130.318,52.488,130.318,51.973z M131.867,38.03h6.843
		c2.208,0,3.908-0.617,5.099-1.851c1.19-1.233,1.786-3.069,1.786-5.508v-0.516c0-2.438-0.596-4.267-1.786-5.487
		c-1.191-1.219-2.891-1.829-5.099-1.829h-6.843V38.03z"/>
	<path fill="#FFFFFF" d="M152.393,51.973v-29.95c0-0.488,0.258-0.732,0.774-0.732c0.316,0,0.76,0.516,1.335,1.549l8.349,16.439
		l8.391-16.439c0.573-1.033,1.018-1.549,1.334-1.549c0.517,0,0.774,0.244,0.774,0.732v29.95c0,0.516-0.257,0.774-0.774,0.774
		s-0.774-0.258-0.774-0.774V25.077l-8.133,15.664c-0.287,0.544-0.561,0.818-0.818,0.818c-0.287,0-0.561-0.273-0.818-0.818
		l-8.09-15.664v26.896c0,0.516-0.258,0.774-0.775,0.774C152.651,52.747,152.393,52.488,152.393,51.973z"/>
</g>
<g>
	<path fill="#FFFFFF" d="M47.27,9.713l-5.069-2.927c-0.219-0.127-0.489-0.127-0.709,0c-0.22,0.126-0.355,0.361-0.355,0.614v5.07
		c0,0.253,0.135,0.487,0.355,0.614l5.069,2.927c0.11,0.063,0.232,0.095,0.355,0.095s0.245-0.032,0.354-0.095
		c0.22-0.126,0.355-0.361,0.355-0.614v-5.07C47.625,10.074,47.49,9.84,47.27,9.713z M46.207,14.168l-3.651-2.108V8.628l3.651,2.108
		V14.168z"/>
	<path fill="#FFFFFF" d="M42.91,69.678c0.11,0.063,0.232,0.095,0.355,0.095s0.245-0.031,0.354-0.095l5.07-2.927
		c0.22-0.126,0.355-0.361,0.355-0.614v-5.07c0-0.253-0.135-0.487-0.355-0.614c-0.219-0.127-0.489-0.127-0.709,0l-5.07,2.927
		c-0.22,0.126-0.355,0.361-0.355,0.614v5.07C42.555,69.317,42.69,69.551,42.91,69.678z M43.974,64.404l3.651-2.108v3.432
		l-3.651,2.108V64.404z"/>
	<path fill="#FFFFFF" d="M61.932,58.696c0.11,0.063,0.232,0.095,0.355,0.095c0.122,0,0.245-0.031,0.354-0.095l5.069-2.927
		c0.22-0.126,0.355-0.361,0.355-0.614v-5.07c0-0.253-0.135-0.487-0.355-0.614c-0.219-0.127-0.489-0.127-0.709,0l-5.069,2.927
		c-0.22,0.126-0.355,0.361-0.355,0.614v5.07C61.577,58.335,61.712,58.569,61.932,58.696z M62.996,53.422l3.651-2.108v3.432
		l-3.651,2.108V53.422z"/>
	<path fill="#FFFFFF" d="M73.288,42.082l-4.229-2.474l4.227-2.433c0.22-0.127,0.355-0.361,0.355-0.615v-0.013V21.46v-0.346
		c0-0.253-0.135-0.487-0.354-0.614L36.625-0.681c-0.111-0.063-0.234-0.095-0.357-0.094c-0.123,0-0.246,0.031-0.357,0.094
		c0,0-35.571,20.394-35.582,20.401C0.078,19.889,0,20.1,0,20.308v15.596v0.183c0,0.254,0.136,0.489,0.357,0.615l3.545,2.029
		L0.356,40.77C0.136,40.897,0,41.131,0,41.385v15.549v0.115c0,0.252,0.135,0.486,0.353,0.613l36.98,21.466c0,0,0.001,0,0.001,0
		c0,0,0,0,0.001,0.001c0.109,0.063,0.232,0.095,0.354,0.095s0.244-0.031,0.355-0.095l15.202-8.793
		c0.219-0.127,0.354-0.361,0.354-0.614v-6.869l3.422-1.975v6.044c0,0.253,0.135,0.487,0.355,0.614c0.219,0.127,0.49,0.127,0.709,0
		l15.202-8.793c0.219-0.127,0.354-0.361,0.354-0.614V42.696C73.642,42.443,73.507,42.209,73.288,42.082z M71.59,42.65l-11.966,6.882
		l-3.897-2.252l11.918-6.86L71.59,42.65z M37.691,62.148L15.38,49.267l3.447-1.994l18.151,10.388c0.001,0,0.001,0.001,0.002,0.002
		s0.002,0,0.002,0.001l0.001,0c0.109,0.063,0.23,0.094,0.352,0.094c0.123,0,0.244-0.032,0.354-0.095l16.619-9.565l3.896,2.252
		L37.691,62.148z M13.962,50.087L36.98,63.376v13.907L2.024,56.992L13.962,50.087z M52.999,31.931l-12.038,6.816l-4.299-2.527
		V22.322L52.999,31.931z M35.845,37.43l3.683,2.128l-2.189,1.24l-3.648-2.122L35.845,37.43z M32.277,39.494l4.348,2.529v13.803
		l-16.379-9.374L32.277,39.494z M72.224,36.15l-34.18,19.672V42.029l34.18-19.353V36.15z M65.103,25.078l-3.526-2.036V19.61
		l3.651,2.108v3.289L65.103,25.078z M36.98,1.162l34.826,20.121l-5.159,2.921v-2.895c0-0.253-0.135-0.487-0.355-0.614l-5.07-2.927
		c-0.219-0.127-0.489-0.127-0.709,0c-0.22,0.126-0.355,0.361-0.355,0.614v5.07c0,0.253,0.135,0.487,0.355,0.614l3.158,1.823
		l-3.986,2.257l-2.664-1.526h0.001v-6.862c0-0.253-0.135-0.487-0.355-0.614l-4.839-2.794c-0.219-0.127-0.489-0.127-0.709,0
		c-0.22,0.126-0.355,0.361-0.355,0.614v6.051L36.98,15.072V1.162z M36.168,16.242l14.949,8.615c0.22,0.126,0.49,0.126,0.709-0.001
		c0.219-0.127,0.354-0.361,0.354-0.614v-6.05l3.421,1.975v6.863c0,0.255,0.136,0.49,0.357,0.616l2.292,1.312l-3.821,2.163
		l-18.121-10.62c-0.219-0.127-0.489-0.127-0.709-0.001L18.93,30.087l-3.339-1.943L36.168,16.242z M1.424,20.904L35.556,1.159v13.798
		L1.418,34.674L1.424,20.904z M1.997,36.008l12.179-7.044l3.335,1.94L5.325,37.912L1.997,36.008z M1.418,41.795L35.243,22.34v13.799
		L1.418,55.704V41.795z M72.224,57.72L58.44,65.693V59.65c0-0.253-0.135-0.487-0.355-0.614c-0.219-0.127-0.489-0.127-0.709,0
		l-4.839,2.794c-0.22,0.126-0.355,0.361-0.355,0.614v6.869l-13.783,7.972V63.376l33.825-19.454V57.72z"/>
</g>
</svg>
